<svg id="Слой_1" data-name="Слой 1" xmlns="http://www.w3.org/2000/svg" viewBox="0 0 5451.43 5451.43"><defs><style>.cls-1{fill:#adc59d;}.cls-2{font-size:218.95px;font-family:MyriadPro-Regular, Myriad Pro;letter-spacing:0.5em;}</style></defs><title>nefritis3</title><rect class="cls-1" width="5451.43" height="5451.43"/><path d="M2842.27,2702V3002.1l34,4.27-.37,6H2730.56l-.39-5.84,32.28-4.38V2378l-31.44-6.64c1.84-3.12,2.63-5.57,3.37-5.56,64.51,1.44,130.12-3.74,193.24,6.45,75.93,12.25,116.75,71.74,117,148.76.29,96-21.14,129.43-113.05,173.6,7.4,3.13,13.15,5.41,18.78,8,57.54,26.14,91.8,69,93.91,133.72,1.13,34.53,0,69.12.29,103.68.07,10.33-.51,21.19,2.43,30.82l.08.24a17,17,0,0,0,29.06,6.18q1.6-1.8,3.15-3.63c2-2.36,9.2-7.23,11.75-6.51-1,2.48-1.87,5.07-2.76,7.68-7.29,21.2-24,38.08-45.52,44.53a67.26,67.26,0,0,1-20.89,3.06c-31.76-.79-51.16-28.59-52.07-63-1.38-52.6-1.7-105.27-5-157.76-1-16.56-8.48-33.42-15.9-48.73C2927.36,2708.44,2895.74,2693.52,2842.27,2702Zm-.16-16.26c44.89,8.55,81.47-1.55,101.57-41.14,37.82-74.49,38.42-151.34.12-225.8-20.5-39.85-57.3-51.71-101.68-39.07Z" transform="translate(0 8.91)"/><path d="M4796.8,2867.06c13.22,33.49,20.38,66.58,38.24,92.2,14.62,21,39.83,39.84,64.18,47.63,45.58,14.58,86.27-17.14,99-70.36,14.49-60.5.84-115.49-39.26-162-28.66-33.25-61.64-62.77-92.5-94.15-72.18-73.37-92.72-174.29-52.41-256.65,35-71.51,129.29-92.46,189.1-42,24.14,20.36,24.22,20.3,38.84-8.9,1.36-2.71,4.14-4.72,9.28-10.38v139.41l-6.64.82c-1.43-7.68-1.43-16-4.54-22.93-12.52-27.78-22.12-58.07-40.17-81.84-20.3-26.75-51.91-37.54-86.08-25.27-33.67,12.09-44.9,41.47-49.25,73.31-9.31,68.26,13.85,125.5,62.2,173.47,30,29.78,61.31,58.45,89.32,90,47.56,53.61,64.54,117.12,51.8,187.77-10.31,57.15-37.14,103.79-95.8,121.1-58.13,17.16-109.1,1.5-152.21-52.2l-19.42,46.9-3.69-.69Z" transform="translate(0 8.91)"/><path d="M1748.83,3003.91c31.84,0,58.55.46,85.24-.13,27.08-.6,39.52-20.36,46.94-41.87,8.52-24.71,13.11-50.78,23-76.34v126.87H1639.15l-.66-5.85,32.89-4.54V2377.75l-32.44-6.37.66-4.94h264.7v126.39c-15.08-39-8.89-90.35-51.4-110-28.87-13.37-66.68-7.42-102.53-10.28v314.7c25.22-4.36,53.19-1.63,69.22-14.16,15.28-12,18.1-39.83,28.79-66.71V2766l-5,1.25c-1.87-9-3.57-18.13-5.63-27.13-9.42-41.3-41-59.36-79.64-44.8-4.16,1.57-8.87,8.63-8.9,13.16C1748.71,2805.9,1748.83,2903.3,1748.83,3003.91Z" transform="translate(0 8.91)"/><path d="M1046.29,2364.6c28.93,0,58-1.3,86.7,1,6.64.53,14.91,12.28,18.05,20.53,39.88,104.88,78.94,210.07,118.27,315.17,13.58,36.29,27.32,72.53,44.09,108.33V2378.1l-31.3-6.13,0-4.39h82c-.7,2.36-1,5.12-1.6,5.19-32.35,3.85-37.3,24.17-37.12,53,1.09,184.05.62,368.12.66,552.18,0,7.78.67,15.65-.38,23.29-.6,4.4-4,8.42-6.15,12.61-4.59-2.86-11.55-4.68-13.37-8.78-7.34-16.54-13.11-33.78-19.42-50.78q-89.68-241.48-179.41-482.94c-2.32-6.24-5.51-12.15-11.16-24.48v554.8l33.68,4.41q0,2.63,0,5.26h-84.43c.34-2.12.46-5,.87-5.06,31.8-3.27,38.61-22.26,38.44-51.73q-1.59-268.31,0-536.63c.15-28.75-10.63-43.88-43-44Z" transform="translate(0 8.91)"/><path d="M2402.6,2608V2766.3l-5.53.72c-2.78-11.94-5.09-24-8.41-35.79-9.28-32.85-48.28-50.67-78.52-35.38-3.94,2-7.25,9.42-7.27,14.34-.42,96.6-.31,193.21-.31,291.33l34.42,5.39-.67,5.57H2192.84l-1.09-5.1,33.92-6V2377.65l-32.3-5.57-.41-5.24c6.8-.88,13.6-2.51,20.4-2.53,74.29-.19,148.58.46,222.85-.51,19.37-.25,26.1,5.89,25.19,25.16-1.31,27.58-.2,55.27-.56,82.91a47.68,47.68,0,0,1-5.53,21.36c-12.19-39.11-6.15-89.63-47-109.56-28.64-14-66.79-8.46-103.56-11.92v313.71c22.27-2.91,50.56,1.26,66.33-10.86C2387.33,2662.13,2391.34,2633.76,2402.6,2608Z" transform="translate(0 8.91)"/><path d="M4088.63,2492.89c-8.34-40.53-4.85-88.69-46.35-111.36-19.8-10.82-48.07-6.13-73.87-8.59v629l33.36,4.29-.23,5.38H3857.19l-1-4,33.8-6.3V2374.7c-33.7,4.55-72.51-14.92-92.63,24.33-14.87,29-21.42,62.28-32.86,97.25v-130.6H4095V2491.9Z" transform="translate(0 8.91)"/><path d="M4396.23,2376.5l-30.08-3.79.13-5.16h143.15l.62,4.21-34.24,5.68v623.89l33.89,5.33-.36,5.17H4364.55l-1-4.87,32.65-4.85Z" transform="translate(0 8.91)"/><path d="M3460.19,3002l35.18,3.83q0,2.73,0,5.45H3350.81l-1.12-4.23,33.63-5V2376.89l-32.68-4.89.32-5.07h143.36c-1.09,2.7-1.77,5.48-2.27,5.45-30.25-1.87-32.53,15.6-32.4,40.49.95,184.91.52,369.83.53,554.75C3460.19,2978.68,3460.19,2989.74,3460.19,3002Z" transform="translate(0 8.91)"/><text class="cls-2" transform="translate(490.31 2087.37)">THE</text></svg>