<?xml version="1.0" encoding="utf-8"?>
<!-- Generator: Adobe Illustrator 21.0.0, SVG Export Plug-In . SVG Version: 6.00 Build 0)  -->
<svg version="1.1" id="Слой_1" xmlns="http://www.w3.org/2000/svg" xmlns:xlink="http://www.w3.org/1999/xlink" x="0px" y="0px"
	 viewBox="0 0 5442.5 5442.5" style="enable-background:new 0 0 5442.5 5442.5;" xml:space="preserve">
<style type="text/css">
	.st0{fill:#ADC59D;}
	.st1{font-family:'MyriadPro-Regular';}
	.st2{font-size:218.9514px;}
	.st3{letter-spacing:109;}
</style>
<rect y="-8.9" class="st0" width="5451.4" height="5451.4"/>
<path d="M2842.3,2702v300.1c12,1.5,23,2.9,34,4.3c-0.2,3.8-0.1,2.2-0.4,6h-145.4c-0.2-3.6-0.1-2.2-0.4-5.8c10-1.4,20-2.7,32.3-4.4
	V2378c-10.3-2.2-20.6-4.3-31.4-6.6c1.8-3.1,2.6-5.6,3.4-5.6c64.5,1.4,130.1-3.7,193.2,6.4c75.9,12.2,116.8,71.7,117,148.8
	c0.3,96-21.1,129.4-113.1,173.6c7.4,3.1,13.2,5.4,18.8,8c57.5,26.1,91.8,69,93.9,133.7c1.1,34.5,0,69.1,0.3,103.7
	c0.1,10.3-0.5,21.2,2.4,30.8l0.1,0.2c3.9,12.7,20.2,16.1,29.1,6.2c1.1-1.2,2.1-2.4,3.2-3.6c2-2.4,9.2-7.2,11.7-6.5
	c-1,2.5-1.9,5.1-2.8,7.7c-7.3,21.2-24,38.1-45.5,44.5c-7,2.1-14.1,3.2-20.9,3.1c-31.8-0.8-51.2-28.6-52.1-63
	c-1.4-52.6-1.7-105.3-5-157.8c-1-16.6-8.5-33.4-15.9-48.7C2927.4,2708.4,2895.7,2693.5,2842.3,2702z M2842.1,2685.8
	c44.9,8.5,81.5-1.6,101.6-41.1c37.8-74.5,38.4-151.3,0.1-225.8c-20.5-39.9-57.3-51.7-101.7-39.1
	C2842.1,2480.9,2842.1,2582.4,2842.1,2685.8z"/>
<path d="M4796.8,2867.1c13.2,33.5,20.4,66.6,38.2,92.2c14.6,21,39.8,39.8,64.2,47.6c45.6,14.6,86.3-17.1,99-70.4
	c14.5-60.5,0.8-115.5-39.3-162c-28.7-33.3-61.6-62.8-92.5-94.1c-72.2-73.4-92.7-174.3-52.4-256.6c35-71.5,129.3-92.5,189.1-42
	c24.1,20.4,24.2,20.3,38.8-8.9c1.4-2.7,4.1-4.7,9.3-10.4c0,49.3,0,94.4,0,139.4c-2.2,0.3-4.4,0.5-6.6,0.8c-1.4-7.7-1.4-16-4.5-22.9
	c-12.5-27.8-22.1-58.1-40.2-81.8c-20.3-26.7-51.9-37.5-86.1-25.3c-33.7,12.1-44.9,41.5-49.2,73.3c-9.3,68.3,13.9,125.5,62.2,173.5
	c30,29.8,61.3,58.4,89.3,90c47.6,53.6,64.5,117.1,51.8,187.8c-10.3,57.1-37.1,103.8-95.8,121.1c-58.1,17.2-109.1,1.5-152.2-52.2
	c-7.5,18.1-13.5,32.5-19.4,46.9c-1.2-0.2-2.5-0.5-3.7-0.7C4796.8,2964.6,4796.8,2916.9,4796.8,2867.1z"/>
<path d="M1748.8,3003.9c31.8,0,58.6,0.5,85.2-0.1c27.1-0.6,39.5-20.4,46.9-41.9c8.5-24.7,13.1-50.8,23-76.3c0,41.8,0,83.6,0,126.9
	c-87.9,0-176.4,0-264.9,0c-0.2-1.9-0.4-3.9-0.7-5.8c10.3-1.4,20.5-2.8,32.9-4.5c0-207.4,0-415,0-624.3c-10.5-2.1-21.5-4.2-32.4-6.4
	c0.2-1.6,0.4-3.3,0.7-4.9c87.9,0,175.7,0,264.7,0c0,42.7,0,84.5,0,126.4c-15.1-39-8.9-90.3-51.4-110c-28.9-13.4-66.7-7.4-102.5-10.3
	c0,106.5,0,207.1,0,314.7c25.2-4.4,53.2-1.6,69.2-14.2c15.3-12,18.1-39.8,28.8-66.7c0,57.1,0,108.4,0,159.7c-1.7,0.4-3.3,0.8-5,1.2
	c-1.9-9-3.6-18.1-5.6-27.1c-9.4-41.3-41-59.4-79.6-44.8c-4.2,1.6-8.9,8.6-8.9,13.2C1748.7,2805.9,1748.8,2903.3,1748.8,3003.9z"/>
<path d="M1046.3,2364.6c28.9,0,58-1.3,86.7,1c6.6,0.5,14.9,12.3,18.1,20.5c39.9,104.9,78.9,210.1,118.3,315.2
	c13.6,36.3,27.3,72.5,44.1,108.3c0-143.2,0-286.4,0-431.5c-10.2-2-20.7-4.1-31.3-6.1c0-1.5,0-2.9,0-4.4c27.2,0,54.4,0,82,0
	c-0.7,2.4-1,5.1-1.6,5.2c-32.3,3.9-37.3,24.2-37.1,53c1.1,184.1,0.6,368.1,0.7,552.2c0,7.8,0.7,15.7-0.4,23.3
	c-0.6,4.4-4,8.4-6.1,12.6c-4.6-2.9-11.6-4.7-13.4-8.8c-7.3-16.5-13.1-33.8-19.4-50.8c-59.8-161-119.6-322-179.4-482.9
	c-2.3-6.2-5.5-12.2-11.2-24.5c0,189.2,0,371.5,0,554.8c12.3,1.6,23,3,33.7,4.4c0,1.8,0,3.5,0,5.3c-28.1,0-56.1,0-84.4,0
	c0.3-2.1,0.5-5,0.9-5.1c31.8-3.3,38.6-22.3,38.4-51.7c-1.1-178.9-0.9-357.8,0-536.6c0.2-28.7-10.6-43.9-43-44
	C1043.3,2370.9,1044.8,2367.7,1046.3,2364.6z"/>
<path d="M2402.6,2608c0,55.6,0,107,0,158.3c-1.8,0.2-3.7,0.5-5.5,0.7c-2.8-11.9-5.1-24-8.4-35.8c-9.3-32.8-48.3-50.7-78.5-35.4
	c-3.9,2-7.2,9.4-7.3,14.3c-0.4,96.6-0.3,193.2-0.3,291.3c12.4,1.9,23.4,3.7,34.4,5.4c-0.2,1.9-0.4,3.7-0.7,5.6
	c-47.8,0-95.7,0-143.5,0c-0.4-1.7-0.7-3.4-1.1-5.1c10.7-1.9,21.3-3.8,33.9-6c0-207.4,0-415.2,0-623.7c-11.1-1.9-21.7-3.7-32.3-5.6
	c-0.1-1.7-0.3-3.5-0.4-5.2c6.8-0.9,13.6-2.5,20.4-2.5c74.3-0.2,148.6,0.5,222.9-0.5c19.4-0.3,26.1,5.9,25.2,25.2
	c-1.3,27.6-0.2,55.3-0.6,82.9c-0.1,7.1-1.8,14.1-5.5,21.4c-12.2-39.1-6.1-89.6-47-109.6c-28.6-14-66.8-8.5-103.6-11.9
	c0,105.6,0,206.1,0,313.7c22.3-2.9,50.6,1.3,66.3-10.9C2387.3,2662.1,2391.3,2633.8,2402.6,2608z"/>
<path d="M4088.6,2492.9c-8.3-40.5-4.8-88.7-46.3-111.4c-19.8-10.8-48.1-6.1-73.9-8.6c0,212.5,0,420.3,0,629
	c12.1,1.5,22.7,2.9,33.4,4.3c-0.1,1.8-0.2,3.6-0.2,5.4c-48.1,0-96.2,0-144.4,0c-0.3-1.3-0.7-2.6-1-4c10.7-2,21.4-4,33.8-6.3
	c0-207.6,0-415.3,0-626.6c-33.7,4.5-72.5-14.9-92.6,24.3c-14.9,29-21.4,62.3-32.9,97.3c0-44.7,0-86.7,0-130.6c109.7,0,219,0,330.5,0
	c0,43.1,0,84.7,0,126.2C4092.9,2492.2,4090.8,2492.6,4088.6,2492.9z"/>
<path d="M4396.2,2376.5c-10.3-1.3-20.2-2.5-30.1-3.8c0-1.7,0.1-3.4,0.1-5.2c47.7,0,95.4,0,143.2,0c0.2,1.4,0.4,2.8,0.6,4.2
	c-11.1,1.8-22.2,3.7-34.2,5.7c0,208.1,0,415.1,0,623.9c11.5,1.8,22.7,3.6,33.9,5.3c-0.1,1.7-0.2,3.4-0.4,5.2c-48.3,0-96.5,0-144.8,0
	c-0.3-1.6-0.7-3.2-1-4.9c10-1.5,20-3,32.7-4.9C4396.2,2794.1,4396.2,2585.8,4396.2,2376.5z"/>
<path d="M3460.2,3002c15.2,1.7,25.2,2.7,35.2,3.8c0,1.8,0,3.6,0,5.5c-48.2,0-96.4,0-144.6,0c-0.4-1.4-0.7-2.8-1.1-4.2
	c10.6-1.6,21.1-3.1,33.6-5c0-207.5,0-415.4,0-625.2c-10.4-1.6-21.6-3.2-32.7-4.9c0.1-1.7,0.2-3.4,0.3-5.1c47.6,0,95.2,0,143.4,0
	c-1.1,2.7-1.8,5.5-2.3,5.5c-30.2-1.9-32.5,15.6-32.4,40.5c0.9,184.9,0.5,369.8,0.5,554.8C3460.2,2978.7,3460.2,2989.7,3460.2,3002z"
	/>
<text transform="matrix(1 0 0 1 490.3144 2078.4653)" class="st1 st2 st3">THE</text>
</svg>
