<?xml version="1.0" standalone="no"?>
<!DOCTYPE svg PUBLIC "-//W3C//DTD SVG 20010904//EN"
 "http://www.w3.org/TR/2001/REC-SVG-20010904/DTD/svg10.dtd">
<svg version="1.0" xmlns="http://www.w3.org/2000/svg"
 width="800.000000pt" height="400.000000pt" viewBox="0 0 1051.000000 1051.000000"
 preserveAspectRatio="xMidYMid meet">
<metadata>
Created by potrace 1.15, written by Peter Selinger 2001-2017
</metadata>
<g transform="translate(0.000000,1051.000000) scale(0.100000,-0.100000)"
fill="#000000" stroke="none">
<path d="M1390 6630 c0 -118 2 -140 15 -140 12 0 15 14 15 65 l0 65 75 0 75 0
0 -65 c0 -51 3 -65 15 -65 13 0 15 22 15 140 0 118 -2 140 -15 140 -12 0 -15
-13 -15 -60 l0 -60 -75 0 -75 0 0 60 c0 47 -3 60 -15 60 -13 0 -15 -22 -15
-140z"/>
<path d="M1880 6630 l0 -140 80 0 c64 0 80 3 80 15 0 12 -13 15 -60 15 l-60 0
0 50 0 50 55 0 c42 0 55 3 55 15 0 12 -13 15 -55 15 l-55 0 0 45 0 45 60 0
c47 0 60 3 60 15 0 12 -16 15 -80 15 l-80 0 0 -140z"/>
<path d="M9373 5956 c-92 -43 -143 -143 -143 -281 0 -145 43 -226 199 -380
114 -112 160 -175 186 -254 33 -101 7 -228 -59 -290 -20 -19 -40 -26 -84 -29
-50 -3 -63 0 -103 26 -57 37 -107 120 -116 192 -12 100 -23 59 -23 -84 0 -91
4 -146 10 -146 6 0 10 13 10 29 0 16 7 36 15 44 12 13 19 10 55 -24 74 -70
196 -87 288 -40 90 46 152 166 152 295 0 141 -40 216 -206 386 -160 164 -185
208 -192 328 -5 97 13 157 59 196 101 85 252 -11 277 -174 13 -93 27 -55 29
80 1 104 -1 130 -12 130 -7 0 -15 -10 -17 -21 -6 -42 -33 -46 -72 -11 -65 57
-166 68 -253 28z"/>
<path d="M1995 5950 c3 -5 17 -10 29 -10 13 0 29 -6 35 -14 9 -10 12 -170 11
-592 0 -531 -2 -580 -17 -591 -9 -7 -27 -13 -40 -13 -13 0 -23 -4 -23 -10 0
-6 37 -10 90 -10 53 0 90 4 90 10 0 6 -18 10 -40 10 l-40 0 1 543 c0 527 1
541 18 502 10 -22 70 -182 134 -355 245 -661 263 -705 280 -708 16 -3 17 39
17 602 0 588 1 606 19 616 11 5 29 10 40 10 12 0 21 5 21 10 0 6 -35 10 -86
10 -54 0 -83 -4 -79 -10 3 -5 19 -10 36 -10 l29 0 0 -427 c0 -234 -2 -424 -5
-422 -2 3 -66 169 -140 369 -75 201 -148 395 -162 433 l-25 67 -100 0 c-63 0
-97 -4 -93 -10z"/>
<path d="M3140 5949 c0 -5 8 -9 18 -8 56 5 52 56 52 -606 l0 -605 -35 0 c-19
0 -35 -4 -35 -10 0 -6 93 -10 260 -10 l260 0 0 125 c0 69 -3 125 -8 125 -4 0
-13 -30 -20 -66 -14 -76 -44 -139 -72 -154 -11 -6 -60 -10 -113 -8 l-92 3 0
295 0 295 44 3 c25 2 55 1 68 -3 26 -6 63 -70 63 -109 0 -14 5 -28 10 -31 7
-4 10 48 10 149 0 97 -4 156 -10 156 -5 0 -10 -12 -10 -27 0 -33 -35 -112 -50
-114 -5 -1 -17 -1 -25 -1 -8 0 -35 0 -60 1 l-45 1 0 295 0 295 101 0 c99 0
102 -1 128 -29 29 -31 47 -80 57 -155 12 -86 24 -47 24 79 l0 125 -260 0
c-177 0 -260 -3 -260 -11z"/>
<path d="M4215 5950 c3 -5 19 -10 36 -10 l29 0 0 -605 0 -605 -35 0 c-19 0
-35 -4 -35 -10 0 -6 53 -10 140 -10 87 0 140 4 140 10 0 6 -16 10 -35 10 l-35
0 2 298 3 297 44 3 c85 6 113 -17 127 -107 13 -81 24 -27 24 120 0 146 -11
193 -25 104 -9 -66 -39 -96 -95 -97 -89 -1 -80 -34 -80 296 l0 295 87 3 c53 2
97 -2 115 -9 34 -15 64 -75 80 -163 5 -33 14 -57 19 -54 5 3 9 59 9 125 l0
119 -261 0 c-171 0 -258 -3 -254 -10z"/>
<path d="M5243 5953 c5 -4 14 -8 20 -9 7 0 20 -2 30 -2 16 -2 17 -38 17 -607
l0 -605 -35 0 c-19 0 -35 -4 -35 -10 0 -6 55 -10 145 -10 90 0 145 4 145 10 0
6 -16 10 -35 10 l-35 0 0 295 0 295 42 0 c52 0 118 -31 144 -67 49 -67 57
-109 63 -303 7 -203 11 -218 67 -245 40 -19 56 -19 99 -1 33 14 65 59 65 91 0
23 -18 18 -22 -6 -2 -12 -11 -27 -20 -33 -36 -22 -43 5 -48 197 -5 176 -6 183
-33 229 -32 56 -97 111 -150 128 -21 6 -37 13 -35 15 2 2 32 18 68 37 70 36
120 95 140 166 15 55 12 193 -5 242 -23 64 -75 122 -141 155 -59 30 -60 30
-259 33 -110 2 -196 0 -192 -5z m382 -53 c59 -58 79 -118 79 -250 1 -123 -10
-176 -47 -231 -36 -54 -82 -79 -143 -79 l-54 0 0 303 0 303 66 -7 c56 -6 71
-11 99 -39z"/>
<path d="M6440 5950 c0 -6 15 -9 35 -7 l35 4 0 -608 0 -609 -35 0 c-19 0 -35
-4 -35 -10 0 -6 55 -10 145 -10 90 0 145 4 145 10 0 6 -18 10 -40 10 l-40 0 0
605 0 605 34 0 c19 0 38 5 41 10 4 6 -45 10 -139 10 -93 0 -146 -4 -146 -10z"/>
<path d="M7238 5883 c-2 -144 0 -176 12 -168 6 3 10 23 10 44 0 50 26 124 55
155 22 24 31 26 100 26 l75 0 0 -605 0 -605 -34 0 c-19 0 -38 -4 -41 -10 -4
-6 45 -10 139 -10 91 0 146 4 146 10 0 6 -16 10 -35 10 l-35 0 0 608 0 607 75
-3 c69 -3 77 -6 100 -33 28 -34 55 -116 55 -166 0 -18 5 -33 10 -33 6 0 10 48
10 125 l0 125 -320 0 -320 0 -2 -77z"/>
<path d="M8396 5949 c3 -6 19 -9 35 -7 19 3 29 0 31 -11 2 -8 2 -281 0 -608
l-2 -593 -35 0 c-19 0 -35 -4 -35 -10 0 -6 55 -10 145 -10 90 0 145 4 145 10
0 6 -16 10 -35 10 l-35 0 0 608 0 608 35 -1 c19 -1 35 2 35 6 0 5 -66 9 -146
9 -103 0 -143 -3 -138 -11z"/>
</g>
</svg>
