<?xml version="1.0" encoding="UTF-8" standalone="no"?>
<svg
   xmlns:dc="http://purl.org/dc/elements/1.1/"
   xmlns:cc="http://creativecommons.org/ns#"
   xmlns:rdf="http://www.w3.org/1999/02/22-rdf-syntax-ns#"
   xmlns:svg="http://www.w3.org/2000/svg"
   xmlns="http://www.w3.org/2000/svg"
   xmlns:sodipodi="http://sodipodi.sourceforge.net/DTD/sodipodi-0.dtd"
   xmlns:inkscape="http://www.inkscape.org/namespaces/inkscape"
   id="Слой_1"
   data-name="Слой 1"
   viewBox="0 0 5451.43 5451.43"
   version="1.1"
   sodipodi:docname="nefritis2.svg"
   inkscape:version="0.92.3 (2405546, 2018-03-11)">
  <metadata
     id="metadata3811">
    <rdf:RDF>
      <cc:Work
         rdf:about="">
        <dc:format>image/svg+xml</dc:format>
        <dc:type
           rdf:resource="http://purl.org/dc/dcmitype/StillImage" />
        <dc:title>nefritis3</dc:title>
      </cc:Work>
    </rdf:RDF>
  </metadata>
  <sodipodi:namedview
     pagecolor="#ffffff"
     bordercolor="#666666"
     borderopacity="1"
     objecttolerance="10"
     gridtolerance="10"
     guidetolerance="10"
     inkscape:pageopacity="0"
     inkscape:pageshadow="2"
     inkscape:window-width="1920"
     inkscape:window-height="1017"
     id="namedview3809"
     showgrid="false"
     inkscape:zoom="0.15298738"
     inkscape:cx="2036.1157"
     inkscape:cy="2725.7151"
     inkscape:window-x="0"
     inkscape:window-y="30"
     inkscape:window-maximized="1"
     inkscape:current-layer="Слой_1" />
  <defs
     id="defs3784">
    <style
       id="style3782">.cls-1{fill:#adc59d;}.cls-2{font-size:218.95px;font-family:MyriadPro-Regular, Myriad Pro;letter-spacing:0.5em;}</style>
  </defs>
  <title
     id="title3786">nefritis3</title>
  <rect
     class="cls-1"
     width="5451.43"
     height="5451.43"
     id="rect3788" />
  <path
     inkscape:connector-curvature="0"
     d="m 2832.9075,1962.2824 v 300.1 l 34,4.27 -0.37,6 h -145.34 l -0.39,-5.84 32.28,-4.38 v -624.15 l -31.44,-6.64 c 1.84,-3.12 2.63,-5.57 3.37,-5.56 64.51,1.44 130.12,-3.74 193.24,6.45 75.93,12.25 116.75,71.74 117,148.76 0.29,96 -21.14,129.43 -113.05,173.6 7.4,3.13 13.15,5.41 18.78,8 57.54,26.14 91.8,69 93.91,133.72 1.13,34.53 0,69.12 0.29,103.68 0.07,10.33 -0.51,21.19 2.43,30.82 l 0.08,0.24 a 17,17 0 0 0 29.06,6.18 q 1.6,-1.8 3.15,-3.63 c 2,-2.36 9.2,-7.23 11.75,-6.51 -1,2.48 -1.87,5.07 -2.76,7.68 -7.29,21.2 -24,38.08 -45.52,44.53 a 67.26,67.26 0 0 1 -20.89,3.06 c -31.76,-0.79 -51.16,-28.59 -52.07,-63 -1.38,-52.6 -1.7,-105.27 -5,-157.76 -1,-16.56 -8.48,-33.42 -15.9,-48.73 -21.52,-44.45 -53.14,-59.37 -106.61,-50.89 z m -0.16,-16.26 c 44.89,8.55 81.47,-1.55 101.57,-41.14 37.82,-74.49 38.42,-151.34 0.12,-225.8 -20.5,-39.85 -57.3,-51.71 -101.68,-39.07 z"
     id="path3790" />
  <path
     inkscape:connector-curvature="0"
     d="m 4787.4375,2127.3424 c 13.22,33.49 20.38,66.58 38.24,92.2 14.62,21 39.83,39.84 64.18,47.63 45.58,14.58 86.27,-17.14 99,-70.36 14.49,-60.5 0.84,-115.49 -39.26,-162 -28.66,-33.25 -61.64,-62.77 -92.5,-94.15 -72.18,-73.37 -92.72,-174.29 -52.41,-256.65 35,-71.51 129.29,-92.46 189.1,-42 24.14,20.36 24.22,20.3 38.84,-8.9 1.36,-2.71 4.14,-4.72 9.28,-10.38 v 139.41 l -6.64,0.82 c -1.43,-7.68 -1.43,-16 -4.54,-22.93 -12.52,-27.78 -22.12,-58.07 -40.17,-81.84 -20.3,-26.75 -51.91,-37.54 -86.08,-25.27 -33.67,12.09 -44.9,41.47 -49.25,73.31 -9.31,68.26 13.85,125.5 62.2,173.47 30,29.78 61.31,58.45 89.32,90 47.56,53.61 64.54,117.12 51.8,187.77 -10.31,57.15 -37.14,103.79 -95.8,121.1 -58.13,17.16 -109.1,1.5 -152.21,-52.2 l -19.42,46.9 -3.69,-0.69 z"
     id="path3792" />
  <path
     inkscape:connector-curvature="0"
     d="m 1739.4675,2264.1924 c 31.84,0 58.55,0.46 85.24,-0.13 27.08,-0.6 39.52,-20.36 46.94,-41.87 8.52,-24.71 13.11,-50.78 23,-76.34 v 126.87 h -264.86 l -0.66,-5.85 32.89,-4.54 v -624.3 l -32.44,-6.37 0.66,-4.94 h 264.7 v 126.39 c -15.08,-39 -8.89,-90.35 -51.4,-110 -28.87,-13.37 -66.68,-7.42 -102.53,-10.28 v 314.7 c 25.22,-4.36 53.19,-1.63 69.22,-14.16 15.28,-12 18.1,-39.83 28.79,-66.71 v 159.62 l -5,1.25 c -1.87,-9 -3.57,-18.13 -5.63,-27.13 -9.42,-41.3 -41,-59.36 -79.64,-44.8 -4.16,1.57 -8.87,8.63 -8.9,13.16 -0.5,97.42 -0.38,194.82 -0.38,295.43 z"
     id="path3794" />
  <path
     inkscape:connector-curvature="0"
     d="m 1036.9275,1624.8824 c 28.93,0 58,-1.3 86.7,1 6.64,0.53 14.91,12.28 18.05,20.53 39.88,104.88 78.94,210.07 118.27,315.17 13.58,36.29 27.32,72.53 44.09,108.33 v -431.53 l -31.3,-6.13 v -4.39 h 82 c -0.7,2.36 -1,5.12 -1.6,5.19 -32.35,3.85 -37.3,24.17 -37.12,53 1.09,184.05 0.62,368.12 0.66,552.18 0,7.78 0.67,15.65 -0.38,23.29 -0.6,4.4 -4,8.42 -6.15,12.61 -4.59,-2.86 -11.55,-4.68 -13.37,-8.78 -7.34,-16.54 -13.11,-33.78 -19.42,-50.78 q -89.68,-241.48 -179.41,-482.94 c -2.32,-6.24 -5.51,-12.15 -11.16,-24.48 v 554.8 l 33.68,4.41 q 0,2.63 0,5.26 h -84.43 c 0.34,-2.12 0.46,-5 0.87,-5.06 31.8,-3.27 38.61,-22.26 38.44,-51.73 q -1.59,-268.31 0,-536.63 c 0.15,-28.75 -10.63,-43.88 -43,-44 z"
     id="path3796" />
  <path
     inkscape:connector-curvature="0"
     d="m 2393.2375,1868.2824 v 158.3 l -5.53,0.72 c -2.78,-11.94 -5.09,-24 -8.41,-35.79 -9.28,-32.85 -48.28,-50.67 -78.52,-35.38 -3.94,2 -7.25,9.42 -7.27,14.34 -0.42,96.6 -0.31,193.21 -0.31,291.33 l 34.42,5.39 -0.67,5.57 h -143.47 l -1.09,-5.1 33.92,-6 v -623.73 l -32.3,-5.57 -0.41,-5.24 c 6.8,-0.88 13.6,-2.51 20.4,-2.53 74.29,-0.19 148.58,0.46 222.85,-0.51 19.37,-0.25 26.1,5.89 25.19,25.16 -1.31,27.58 -0.2,55.27 -0.56,82.91 a 47.68,47.68 0 0 1 -5.53,21.36 c -12.19,-39.11 -6.15,-89.63 -47,-109.56 -28.64,-14 -66.79,-8.46 -103.56,-11.92 v 313.71 c 22.27,-2.91 50.56,1.26 66.33,-10.86 16.25,-12.47 20.26,-40.84 31.52,-66.6 z"
     id="path3798" />
  <path
     inkscape:connector-curvature="0"
     d="m 4079.2675,1753.1724 c -8.34,-40.53 -4.85,-88.69 -46.35,-111.36 -19.8,-10.82 -48.07,-6.13 -73.87,-8.59 v 629 l 33.36,4.29 -0.23,5.38 h -144.35 l -1,-4 33.8,-6.3 v -626.61 c -33.7,4.55 -72.51,-14.92 -92.63,24.33 -14.87,29 -21.42,62.28 -32.86,97.25 v -130.6 h 330.5 v 126.22 z"
     id="path3800" />
  <path
     inkscape:connector-curvature="0"
     d="m 4386.8675,1636.7824 -30.08,-3.79 0.13,-5.16 h 143.15 l 0.62,4.21 -34.24,5.68 v 623.89 l 33.89,5.33 -0.36,5.17 h -144.79 l -1,-4.87 32.65,-4.85 z"
     id="path3802" />
  <path
     inkscape:connector-curvature="0"
     d="m 3450.8275,2262.2824 35.18,3.83 q 0,2.73 0,5.45 h -144.56 l -1.12,-4.23 33.63,-5 v -625.16 l -32.68,-4.89 0.32,-5.07 h 143.36 c -1.09,2.7 -1.77,5.48 -2.27,5.45 -30.25,-1.87 -32.53,15.6 -32.4,40.49 0.95,184.91 0.52,369.83 0.53,554.75 0.01,11.06 0.01,22.12 0.01,34.38 z"
     id="path3804" />
  <text
     y="1338.7424"
     x="480.94745"
     class="cls-2"
     id="text3806"
     style="font-size:218.94999695px;font-family:MyriadPro-Regular, 'Myriad Pro';letter-spacing:0.5em">THE</text>
</svg>
