<?xml version="1.0" encoding="UTF-8"?>
<svg version="1.1" viewBox="0 0 379.25 550.13" xmlns="http://www.w3.org/2000/svg">
 <path d="m44.533 550.04c-10.596-1.9202-13.106-4.0716-14.993-6.8424-0.39754-0.58374-0.32306 0.12955-1.1727-2.4568-0.99861-3.0398-2.0129-6.6904-3.1048-13.86-1.0627-6.9783-2.5958-16.884-3.4068-22.012-3.9762-18.539-1.6181-10.864-3.9762-18.539-1.9376-7.3932-4.4567-28.91-5.4516-46.564-0.5012-8.8943-1.0551-16.412-1.2309-16.706-0.1757-0.29395-0.7781-10.944-1.3385-23.666-0.5681-12.895-2.6777-39.813-4.7671-60.827-6.0339-60.686-6.2163-67.503-3.0934-115.66l0.5556-8.5672 11.994-0.28805c12.531-0.30095 26.452 0.99944 30.842 2.8808 5.2149 2.2353 7.0847 2.1887 14.441-0.36034 9.4639-3.2792 17.388-4.4401 30.965-4.5367 6.1255-0.0436 14.094-0.1195 17.708-0.16868l6.5704-0.0894 0.5555-3.0024c0.3055-1.6513 0.8738-8.0142 1.2629-14.14 0.7547-11.88 5.4346-51.71 6.8083-57.944 0.4532-2.057 1.4522-7.9807 2.2198-13.164 1.5674-10.584 5.4654-28.648 8.1338-37.696 0.9729-3.2984 2.7029-10.332 3.8444-15.63 4.5182-20.971 12.387-39.77 21.958-52.463 7.562-10.028 14.839-14.958 25.248-17.105 4.4552-0.9189 6.0072-0.87269 10.709 0.31884 17.454 4.4234 24.25 13.046 34.946 44.339 2.7892 8.1612 7.2567 22.356 9.9276 31.545 2.671 9.1883 5.2003 17.477 5.6207 18.419 0.9487 2.1266 11.588 50.213 12.795 57.828 0.01 12.788 0.8509 13.149 2.5633 29.364 1.6409 19.168 2.4517 23.964 4.3773 25.894 1.6074 1.6113 3.2018 1.7423 26.746 2.1982 25.492 0.49364 28.924 0.92858 32.625 4.1342 0.8748 0.75786 3.1473 2.0845 4.7119 1.378l5.6915-2.5702c1.8972-0.85672 2.5702-0.38969 3.8553-0.58454 2.1203-0.32149 11.892-0.86587 21.715-1.2097l17.86-0.62519-0.4397 5.4933c-0.6441 8.0472-2.0861 45.375-3.1909 82.598-0.5315 17.905-1.3154 34.29-1.7422 36.41-0.4268 2.1204-1.3543 12.144-2.0612 22.275s-1.8662 21.696-2.5762 25.702c-0.8485 19.327 0.2775 32.815-1.775 51.831-0.2589 2.356-0.8086 8.9098-1.2216 14.564s-1.1673 14.136-1.676 18.848c-0.5088 4.7119-0.8263 13.749-1.9304 19.919-2.0314 11.351-1.9003 10.669-2.0314 11.351-0.4259 2.2164-2.101 11.994-2.101 11.994-4.7859 27.322-1.755 20.189-5.8262 27.119-3.9265 6.6835-4.789 7.3459-12.277 9.4292-5.0937 1.4172-11.877 1.4898-106.96 1.1448-142.44-0.51686-175.25-0.5005-181.62 0.0905-3.0628 0.28394-6.3398 0.37652-7.2821 0.20574zm145.61-340.82c20.716-0.24019 38.976-0.68273 40.579-0.98342l2.9143-0.54673-0.5798-6.0972c-0.7007-7.3678-3.6469-29.005-7.6543-56.215-1.6309-11.073-3.9653-29.385-5.1876-40.694-7.2535-67.109-7.8607-70.965-12.826-81.446-3.6577-7.7213-3.7896-7.8739-9.1013-10.528-9.2561-4.6254-14.831-3.4467-23.138 4.8924-6.2778 6.3017-9.7894 11.722-11.59 17.89-0.6553 2.2448-2.3127 7.3583-3.6831 11.363-1.919 5.6087-2.7253 10.137-3.5088 19.704-0.5595 6.8323-1.759 18.204-2.6656 25.27-1.7701 13.797-2.5999 26.948-4.622 73.252-0.7099 16.256-1.4973 32.857-1.7496 36.892-0.2524 4.0342-0.18 7.6138 0.1609 7.9547 0.3409 0.34091 1.6023 0.41925 2.803 0.17408 1.2007-0.24516 19.132-0.64227 39.848-0.88245z"/>
</svg>
